<?xml version="1.0" standalone="no"?>
<!DOCTYPE svg PUBLIC "-//W3C//DTD SVG 20010904//EN"
 "http://www.w3.org/TR/2001/REC-SVG-20010904/DTD/svg10.dtd">
<svg version="1.0" xmlns="http://www.w3.org/2000/svg"
 width="500.000000pt" height="500.000000pt" viewBox="0 0 500.000000 500.000000"
 preserveAspectRatio="xMidYMid meet">

<g transform="translate(0.000000,500.000000) scale(0.100000,-0.100000)"
fill="#000000" stroke="none">
<path d="M2820 4520 c109 -62 124 -74 75 -54 -22 9 -47 18 -55 21 -24 9 21
-21 72 -47 26 -14 45 -26 44 -28 -2 -1 -34 9 -71 23 -96 36 -93 31 10 -19 89
-44 111 -60 42 -31 -58 24 -56 16 3 -15 68 -36 63 -37 -20 -5 -35 14 -65 23
-67 22 -1 -2 42 -25 97 -52 55 -26 99 -50 97 -52 -2 -2 -41 10 -87 27 -46 17
-84 29 -86 27 -2 -2 37 -23 86 -47 99 -47 115 -63 29 -29 -93 37 -99 39 -99
34 0 -3 47 -27 105 -55 58 -27 105 -52 105 -54 0 -3 -37 8 -81 25 -45 16 -83
28 -85 26 -2 -2 34 -21 81 -42 91 -40 107 -58 29 -31 -64 22 -67 20 -14 -9 52
-28 49 -31 -10 -10 -64 23 -62 18 10 -20 81 -42 74 -44 -21 -5 -41 16 -76 30
-79 30 -3 0 28 -18 68 -39 74 -39 105 -61 67 -47 -45 17 -48 16 -12 -4 20 -11
37 -23 37 -25 0 -6 -40 10 -80 30 -61 32 -41 13 33 -30 114 -67 104 -69 -36
-6 -26 12 -55 34 -65 49 -44 69 -178 161 -284 196 -57 19 -105 27 -185 31 -69
3 -99 2 -83 -4 14 -5 50 -10 80 -10 30 -1 66 -5 80 -9 20 -5 12 -8 -35 -13
-59 -5 -58 -6 24 -7 46 -1 82 -4 79 -7 -3 -3 -38 -9 -79 -14 l-74 -8 95 -3
c87 -3 91 -4 40 -10 l-55 -7 75 -2 c92 -3 83 -8 -35 -20 l-90 -8 130 -3 c120
-2 125 -3 70 -12 -167 -24 -168 -25 -40 -29 70 -1 96 -4 63 -6 -92 -6 -67 -23
35 -24 l92 -2 -100 -12 -100 -12 110 -3 110 -3 -80 -12 -80 -12 65 -3 65 -3
-50 -7 -50 -7 58 -1 c86 -3 69 -22 -20 -24 -54 -1 -62 -3 -28 -5 28 -1 70 -6
95 -9 36 -5 41 -8 25 -15 -18 -7 -18 -8 5 -10 14 -1 0 -5 -30 -9 l-55 -7 65
-2 c105 -4 119 -19 18 -20 -59 -1 -91 3 -100 12 -7 7 -53 26 -103 43 -77 25
-105 29 -195 28 -68 0 -125 -6 -161 -17 -62 -19 -172 -67 -166 -73 2 -2 40 10
86 26 101 37 112 37 41 0 -71 -38 -61 -38 30 0 86 35 104 33 31 -4 -28 -15
-51 -28 -51 -31 0 -6 40 9 89 35 46 23 55 25 45 9 -5 -9 1 -10 22 -5 20 4 11
-4 -31 -29 -33 -19 -64 -35 -69 -35 -5 0 -7 -2 -4 -5 3 -3 46 13 97 36 51 22
94 39 97 37 2 -2 -30 -24 -72 -47 -41 -24 -73 -45 -71 -47 2 -2 43 14 92 36
48 23 89 39 91 37 2 -2 -23 -19 -56 -37 -33 -18 -58 -35 -57 -37 2 -2 45 15
97 37 51 23 94 39 96 37 2 -2 -28 -21 -66 -42 -38 -21 -68 -40 -67 -42 2 -2
39 13 81 33 43 19 80 34 82 31 2 -2 -30 -23 -71 -46 -41 -24 -75 -45 -75 -47
0 -2 32 12 71 32 39 19 73 34 75 31 8 -7 -146 -89 -159 -84 -21 8 -155 -31
-221 -64 -67 -34 -156 -101 -201 -150 l-30 -33 40 29 c22 16 61 46 86 67 64
52 73 48 19 -8 -44 -46 -44 -46 23 10 37 31 70 56 74 56 4 0 -14 -22 -40 -48
-26 -26 -47 -52 -47 -57 0 -5 29 20 65 55 78 77 87 69 13 -10 -50 -51 -50 -52
-8 -15 25 22 59 52 75 65 28 23 27 22 -5 -15 -89 -101 -89 -104 -5 -28 49 45
91 80 94 78 2 -2 -30 -42 -70 -87 l-74 -83 73 64 c40 35 75 67 78 72 3 5 15
14 27 20 15 8 8 -3 -18 -32 -79 -86 -79 -93 1 -21 88 78 119 95 63 35 -78 -85
-91 -106 -34 -53 90 83 123 109 105 85 -8 -11 -32 -39 -54 -62 -37 -40 -46
-60 -14 -30 85 76 93 83 68 52 -13 -16 -38 -46 -55 -65 l-30 -35 40 35 c87 77
102 87 60 40 -78 -86 -79 -93 -7 -32 71 61 90 73 76 50 -5 -8 -1 -9 12 -5 10
4 -6 -16 -36 -45 -55 -51 -41 -44 55 28 58 44 49 22 -15 -34 -32 -29 -68 -52
-79 -52 -12 0 -29 -4 -39 -9 -9 -5 -39 -19 -67 -31 -76 -34 -169 -104 -216
-164 -41 -53 -42 -53 -118 -65 -86 -13 -231 -65 -231 -83 0 -4 -24 -7 -52 -6
l-53 1 45 7 45 7 -40 3 c-40 2 -40 2 15 13 l55 10 -35 13 -35 12 45 2 c42 1
43 2 20 12 l-25 11 35 7 35 7 -40 3 -40 3 40 7 40 7 -45 3 c-38 3 -33 5 30 10
67 6 70 7 23 8 -83 3 -63 22 25 24 l77 1 -60 7 c-41 5 -49 7 -25 8 19 1 46 6
60 10 21 6 17 8 -25 13 l-50 6 49 1 c42 2 47 4 36 17 -10 12 -10 15 4 15 9 0
16 5 16 10 0 6 8 10 18 11 14 0 14 2 -3 9 -15 6 -6 9 35 11 46 2 49 3 20 7
-30 5 -23 8 45 18 l80 13 -85 -3 c-92 -4 -169 -26 -248 -72 -50 -29 -172 -148
-172 -168 0 -13 -79 -50 -88 -41 -3 3 -1 5 4 5 6 0 19 7 30 15 18 14 17 14
-11 5 -28 -9 -28 -9 -10 5 49 35 60 46 45 43 -9 -2 -15 2 -15 7 0 6 6 9 12 9
7 -1 10 2 8 7 -3 4 7 15 22 24 25 14 25 15 4 9 -17 -4 -21 -3 -16 6 5 9 1 10
-16 6 -16 -5 -12 0 11 13 42 24 33 27 -17 6 -52 -22 -51 -12 1 16 53 28 54 36
2 14 -55 -23 -36 -3 28 29 63 32 74 44 19 21 -63 -26 -48 -8 23 29 82 42 80
45 -5 10 -80 -32 -89 -26 -15 10 31 15 54 30 51 33 -3 2 -14 0 -25 -6 -31 -16
-41 -13 -12 4 15 9 19 15 10 15 -8 1 5 12 30 25 51 27 47 32 -8 10 -33 -13
-35 -13 -17 0 11 9 20 21 20 27 0 6 7 13 15 15 13 4 13 3 0 -7 -13 -10 -12
-11 3 -6 10 3 22 6 25 6 4 0 1 4 -6 9 -10 6 -2 15 30 34 24 14 38 26 32 27
-21 0 -130 -72 -177 -118 -90 -87 -137 -199 -146 -347 l-6 -90 -39 80 c-49
101 -152 208 -239 249 -58 27 -185 57 -235 55 -28 -1 -1 -8 93 -24 33 -6 37
-9 20 -15 -16 -7 -14 -9 15 -11 28 -2 24 -4 -20 -9 l-55 -7 60 -2 c40 -1 55
-4 46 -10 -11 -7 -7 -10 15 -14 21 -3 15 -5 -21 -7 -49 -3 -48 -3 30 -15 l80
-12 -75 -3 c-68 -2 -71 -3 -35 -11 22 -4 60 -9 85 -10 l45 -2 -55 -6 -55 -6
80 -10 80 -9 -60 -7 -60 -6 58 -1 c57 -2 82 -21 30 -23 l-28 -1 25 -8 c25 -8
25 -8 -5 -11 -25 -2 -22 -3 15 -9 l45 -7 -50 -3 -50 -3 45 -7 c25 -4 36 -8 25
-9 -17 -3 -17 -4 5 -11 25 -8 25 -8 -5 -10 -22 -2 -15 -5 30 -15 53 -11 56
-13 25 -15 l-35 -3 35 -7 c34 -7 34 -7 -12 -9 -27 0 -48 3 -48 8 0 11 -133 76
-185 90 -69 19 -207 14 -280 -10 -77 -26 -81 -37 -5 -15 29 9 64 13 78 9 l25
-6 -34 -18 c-45 -24 -32 -24 31 1 28 11 49 16 45 10 -3 -5 0 -10 7 -10 7 -1
-3 -9 -22 -20 -46 -25 -33 -25 30 0 77 31 83 23 10 -15 -78 -41 -75 -43 10
-10 75 30 99 32 50 5 -45 -25 -37 -25 34 0 66 22 67 10 1 -16 -25 -9 -44 -19
-41 -21 2 -2 27 5 57 16 59 23 76 21 32 -3 -33 -18 -26 -21 14 -5 37 14 22 0
-25 -23 -33 -16 -26 -16 28 -1 8 2 -1 -5 -20 -16 -42 -24 -37 -26 20 -6 24 8
45 13 48 10 3 -3 -1 -5 -9 -5 -11 0 -12 -2 -1 -9 10 -6 7 -10 -13 -15 -15 -4
-25 -9 -23 -12 3 -2 27 3 54 11 66 20 78 18 29 -6 -22 -11 -32 -17 -22 -14 57
16 70 14 32 -4 l-40 -19 70 3 c59 3 66 1 47 -9 -12 -7 -20 -15 -17 -18 3 -3
-1 -8 -10 -11 -8 -4 -15 -3 -15 1 0 4 -10 8 -22 9 -13 1 -62 5 -110 9 -143 11
-247 -19 -360 -104 -27 -20 -62 -54 -79 -77 l-32 -40 49 48 c51 48 82 64 48
25 l-19 -23 22 19 c13 10 20 24 16 30 -3 6 -2 8 2 3 5 -4 17 0 27 10 26 23 22
7 -9 -35 -21 -29 -16 -26 21 13 39 41 44 44 25 15 -16 -25 -18 -31 -6 -21 22
17 22 4 1 -23 -9 -12 8 5 38 37 65 67 83 75 37 15 -55 -72 -54 -76 5 -14 62
65 73 67 24 2 -27 -36 -23 -33 32 19 62 59 63 59 30 15 -56 -75 -55 -78 4 -15
31 33 53 51 49 40 -6 -18 -5 -19 12 -5 18 15 18 14 1 -12 -20 -30 -32 -37 -22
-13 9 24 -1 17 -25 -17 -19 -27 -20 -30 -4 -18 17 14 18 13 12 -4 -6 -16 -5
-17 8 -6 12 10 15 10 15 -1 0 -7 13 0 30 16 40 39 71 44 39 7 -13 -15 -25 -28
-25 -30 -1 -2 -13 -4 -27 -6 -14 -1 -32 -7 -39 -12 -7 -6 -30 -19 -52 -29 -61
-32 -147 -123 -187 -200 -48 -92 -60 -139 -14 -55 20 36 33 54 30 40 -4 -16 4
-9 20 20 22 40 24 42 20 15 l-5 -30 14 30 c9 17 15 23 16 15 0 -10 6 -6 16 10
9 14 13 17 10 7 -19 -61 -12 -62 13 -2 32 75 40 71 16 -9 -20 -64 -12 -72 9
-9 16 45 54 119 42 80 -18 -58 -13 -64 10 -12 29 67 40 83 30 45 -16 -66 -15
-71 8 -25 20 39 24 43 20 20 -4 -23 -3 -27 5 -15 9 13 11 12 12 -5 0 -16 4
-14 15 10 14 29 15 29 9 3 -2 -14 -7 -34 -11 -45 -3 -10 6 2 19 26 20 37 26
42 34 27 8 -14 12 -11 26 20 21 42 33 41 17 -2 -9 -27 -9 -28 5 -10 8 11 15
24 15 30 0 5 3 7 6 4 3 -3 -2 -23 -11 -43 -8 -21 -18 -36 -21 -33 -9 9 -115
-107 -146 -159 -48 -81 -68 -163 -66 -267 l2 -91 6 85 c4 63 7 76 11 50 5 -32
6 -31 8 15 3 41 4 46 11 25 7 -21 8 -18 10 20 2 42 3 43 10 15 l8 -30 2 30 3
30 7 -35 c6 -29 8 -23 9 35 3 79 7 77 20 -10 l9 -60 2 75 c2 61 4 69 10 40 6
-30 8 -26 10 30 l3 65 13 -60 13 -60 -5 70 c-6 75 5 83 17 12 l6 -42 3 40 c2
39 3 39 10 10 7 -29 8 -29 10 10 l3 40 7 -45 7 -45 1 53 c2 56 21 69 33 22 5
-17 7 -5 9 35 2 54 3 56 10 25 l7 -35 3 45 3 45 4 -38 c5 -44 23 -40 24 6 0
27 2 29 9 12 6 -17 8 -14 12 15 l5 35 2 -35 c2 -29 4 -32 11 -15 8 19 9 19 9
-2 1 -13 -3 -23 -9 -23 -5 0 -10 -7 -10 -16 0 -9 -8 -28 -18 -42 -28 -40 -63
-159 -69 -232 -4 -45 0 -87 12 -135 18 -71 66 -178 85 -190 6 -4 0 16 -14 44
-28 55 -31 65 -16 56 6 -3 7 1 3 10 -4 11 -8 13 -13 5 -4 -6 -7 3 -7 20 l0 31
24 -28 c21 -26 21 -24 -4 21 -15 27 -21 46 -13 41 10 -6 12 -4 7 11 -5 12 2 9
19 -11 25 -28 25 -27 -5 26 -43 78 -39 85 10 16 39 -55 67 -81 37 -35 -8 13
-27 46 -42 73 -27 48 -15 41 27 -16 10 -13 2 6 -17 43 -45 84 -46 97 -1 34 19
-27 38 -52 42 -55 7 -6 -30 58 -54 94 -23 34 -14 41 13 10 23 -27 24 -28 14
-5 -10 23 -9 23 15 -5 19 -21 24 -24 16 -8 -17 34 -12 40 10 13 l20 -25 -16
33 c-16 32 -12 58 6 46 6 -3 3 11 -6 33 -27 62 -28 70 -5 36 30 -45 35 -41 10
7 -28 54 -17 51 16 -5 26 -45 45 -64 24 -24 -7 11 -9 27 -6 35 3 8 2 13 -3 10
-5 -3 -12 1 -15 10 -3 8 -2 12 4 9 13 -8 13 1 -1 27 -6 11 -8 22 -6 25 3 3 13
-10 22 -27 21 -40 42 -27 24 14 -10 21 -10 29 0 39 10 9 11 8 5 -7 -5 -13 -4
-17 4 -12 7 4 12 2 12 -5 0 -7 2 -10 5 -7 3 3 1 18 -5 33 -14 38 -5 43 15 8
15 -26 15 -27 10 -3 -14 56 -14 64 0 35 l15 -30 -6 36 c-6 38 13 69 42 69 30
0 174 -325 259 -585 139 -421 232 -931 260 -1435 l7 -115 -32 -60 c-54 -100
-58 -102 -127 -53 l-44 32 -39 -42 c-39 -42 -40 -42 -92 -36 -59 7 -74 -3
-106 -68 -20 -40 -53 -46 -118 -24 -25 8 -51 13 -58 10 -12 -5 -25 -34 -26
-56 0 -5 335 -8 745 -8 l746 0 -15 28 c-19 37 -54 68 -149 132 -67 45 -91 68
-130 128 -36 55 -53 72 -68 70 -10 -2 -49 -41 -87 -87 -37 -47 -73 -86 -79
-89 -16 -5 -17 203 -3 458 48 830 197 1538 450 2142 43 101 115 254 125 266 7
8 55 -24 56 -37 0 -12 3 -11 10 4 9 20 6 -25 -6 -85 -3 -14 2 -6 11 18 22 60
28 46 10 -24 -8 -32 -14 -60 -12 -61 2 -2 13 19 25 47 22 50 37 68 27 30 -3
-11 -9 -30 -12 -41 -4 -15 -3 -19 6 -14 9 5 10 1 5 -16 -5 -18 -4 -21 4 -9 6
8 8 24 5 35 -4 16 -3 17 5 5 9 -12 11 -13 11 -1 0 8 2 12 5 9 3 -3 -2 -24 -10
-48 -20 -56 -18 -63 5 -20 23 42 26 33 5 -17 -24 -56 -17 -53 15 7 31 58 40
54 15 -7 -8 -20 -13 -38 -10 -41 3 -3 5 -1 5 4 0 6 7 19 16 30 18 22 16 14
-16 -66 -26 -65 -19 -61 27 18 37 62 35 35 -3 -40 -33 -65 -23 -60 15 7 52 91
50 71 -3 -49 -34 -77 -33 -84 4 -17 35 63 46 76 35 42 -5 -16 -4 -21 4 -17 13
8 3 -22 -29 -84 -28 -55 -19 -50 20 10 18 28 34 50 36 50 2 0 -9 -27 -26 -60
-17 -33 -28 -60 -26 -60 2 0 18 23 36 50 45 70 49 62 6 -15 -20 -36 -34 -65
-32 -65 1 0 22 29 46 65 25 35 46 62 48 60 2 -2 -15 -37 -38 -79 -23 -42 -40
-76 -37 -76 3 0 22 25 42 56 20 30 39 53 42 51 2 -3 -17 -44 -42 -91 -26 -47
-45 -86 -42 -86 3 0 24 29 47 65 23 36 44 65 47 65 2 0 -21 -47 -52 -105 -31
-58 -54 -105 -52 -105 2 0 28 36 57 80 30 43 56 77 58 75 2 -2 -19 -47 -48
-99 -28 -53 -49 -96 -47 -96 2 0 23 29 46 65 23 36 44 65 47 65 3 0 -11 -29
-31 -65 -43 -77 -40 -86 5 -15 65 101 35 33 -42 -97 -35 -58 -12 -35 32 32 23
36 44 65 46 65 4 0 -23 -64 -42 -102 -8 -16 -12 -28 -10 -28 3 0 13 14 21 31
9 17 19 29 21 26 3 -2 -13 -44 -35 -92 -23 -48 -35 -82 -28 -76 22 17 85 160
103 231 24 93 15 240 -20 343 -20 60 -26 97 -26 164 0 101 8 104 19 6 l8 -68
3 70 c2 65 3 67 11 30 4 -22 9 -65 10 -95 2 -50 3 -48 9 25 6 77 6 78 10 25
l3 -55 7 50 c6 42 7 34 9 -50 3 -113 7 -114 20 -5 l8 75 3 -85 3 -85 11 75 11
75 6 -60 c5 -51 6 -54 8 -20 6 88 19 91 21 5 l3 -85 11 75 11 75 6 -115 c3
-65 6 -93 8 -65 7 109 19 111 21 5 l3 -105 10 83 c5 45 13 82 17 82 4 0 6 -53
4 -117 l-3 -118 13 95 13 95 3 -75 c2 -50 5 -62 7 -35 8 77 21 57 18 -26 l-4
-84 12 75 12 75 6 -90 c4 -77 6 -81 7 -30 3 92 21 47 23 -55 1 -75 2 -81 11
-50 13 47 -5 211 -32 283 -37 98 -157 267 -190 267 -6 0 -19 15 -30 33 -11 17
-20 25 -20 17 0 -24 -25 8 -44 59 -21 54 -12 69 9 16 18 -42 31 -43 15 0 -21
56 0 35 34 -34 20 -39 39 -71 41 -71 3 0 1 9 -5 19 -13 25 -13 44 0 36 5 -3 5
7 -1 25 -13 36 -24 40 -15 5 9 -35 0 -31 -13 5 -6 18 -6 28 -1 25 6 -4 10 0
11 7 0 7 20 -27 45 -77 24 -49 44 -87 44 -84 0 3 -11 39 -25 79 -30 88 -27
103 5 25 27 -67 39 -66 16 1 -23 69 -12 65 15 -5 28 -72 38 -73 14 -1 -27 82
-10 69 26 -19 18 -44 34 -79 36 -78 1 2 -7 34 -18 71 -11 37 -19 70 -17 72 2
2 21 -37 43 -86 21 -50 40 -89 42 -87 1 2 -6 30 -17 62 -35 102 -16 84 30 -28
24 -58 45 -105 47 -104 1 2 -11 47 -27 102 -17 54 -28 100 -26 102 1 2 20 -37
41 -87 39 -93 57 -117 30 -40 -22 64 -17 72 11 15 14 -27 22 -42 19 -32 -26
90 -16 88 20 -4 32 -83 44 -87 16 -6 -11 32 -18 57 -16 57 3 0 20 -30 39 -67
37 -72 46 -80 20 -18 -29 69 -7 46 40 -42 53 -100 51 -75 -2 36 -22 44 -61
100 -98 140 -62 67 -172 151 -198 151 -8 0 -36 26 -63 58 -78 92 -81 101 -13
37 60 -57 62 -58 28 -15 -58 75 -53 79 12 10 l62 -65 -51 66 c-28 37 -51 71
-51 75 1 5 37 -29 81 -76 77 -81 79 -82 32 -22 -82 107 -80 110 12 22 80 -77
84 -80 45 -30 -24 30 -51 64 -59 75 -8 11 25 -18 74 -65 l88 -85 -53 70 c-81
106 -81 107 15 15 80 -77 84 -80 45 -30 -75 94 -76 96 -16 40 l59 -55 -38 50
-39 50 69 -65 c61 -58 64 -60 33 -20 -59 76 -54 78 23 5 l73 -70 -49 59 c-47
57 -36 65 15 11 14 -15 43 -41 65 -58 l40 -32 -30 35 c-85 100 -215 184 -330
214 -57 14 -285 27 -285 15 0 -3 -19 -9 -42 -15 -34 -7 -55 -5 -98 9 -68 23
-78 32 -25 23 22 -4 51 -9 65 -12 14 -2 6 3 -18 12 -60 22 -49 25 27 8 35 -8
65 -13 68 -11 2 3 -26 15 -62 27 -79 26 -82 35 -5 15 76 -20 85 -18 22 6 -69
27 -61 34 16 15 78 -21 87 -19 32 5 -43 19 -44 19 -10 14 35 -6 35 -6 10 9
-34 21 -28 20 64 -9 44 -14 81 -23 83 -21 2 1 -28 15 -67 30 -90 36 -100 51
-13 21 37 -13 69 -23 70 -21 2 2 -24 15 -57 30 -33 15 -60 29 -60 31 0 3 30
-6 67 -20 37 -13 69 -23 70 -21 2 2 -24 15 -58 30 -33 15 -59 30 -56 32 2 2
37 -7 77 -21 40 -14 75 -23 77 -21 2 2 -26 16 -63 32 -91 38 -68 41 41 4 48
-16 90 -28 92 -26 2 1 -27 16 -64 31 -97 42 -62 42 52 0 54 -19 99 -34 101
-32 2 1 -40 22 -92 46 -52 24 -93 45 -91 47 2 2 43 -10 92 -26 49 -16 90 -28
92 -26 2 2 -24 15 -57 29 -33 15 -60 29 -60 32 0 2 30 -6 67 -20 82 -29 95
-26 18 5 -84 34 -59 35 36 1 46 -16 85 -28 86 -27 2 2 -26 15 -62 31 -76 32
-80 42 -9 20 66 -20 78 -18 29 5 -55 26 -36 24 70 -5 102 -28 126 -31 75 -9
-109 48 -279 67 -392 43 -66 -14 -199 -69 -214 -88 -11 -14 -86 -29 -153 -30
-50 -1 -33 7 45 23 69 14 69 14 24 16 l-45 3 35 7 35 7 -40 3 c-39 2 -39 3 15
11 142 24 146 26 45 22 -115 -4 -114 4 1 16 l79 8 -80 3 -80 3 85 12 85 12
-80 3 c-91 3 -84 7 30 19 l80 8 -85 3 c-75 2 -80 3 -45 11 22 5 72 12 110 17
l70 9 -80 3 c-75 2 -77 3 -35 11 25 4 69 8 99 8 30 1 52 3 50 5 -6 6 -68 14
-129 17 -33 1 -18 5 55 14 l100 12 -70 3 c-55 2 -64 4 -40 10 17 4 57 9 90 11
l60 3 -80 5 -80 6 105 10 105 10 -85 5 -85 5 80 10 80 10 -55 5 -55 5 95 16
c85 15 90 17 44 18 -72 2 -194 -32 -276 -76 -121 -66 -234 -201 -299 -357
l-24 -59 -7 92 c-16 201 -69 325 -192 446 -63 62 -100 89 -168 123 -115 56
-123 53 -18 -8z m218 -514 c76 -39 94 -59 27 -31 -33 14 -67 32 -75 40 -21 21
-6 18 48 -9z m67 -78 c16 -14 -4 -9 -45 12 -22 11 -40 25 -40 31 0 9 60 -21
85 -43z m10 -35 c29 -20 10 -16 -35 7 -22 11 -40 25 -40 31 0 10 18 2 75 -38z
m330 38 c-11 -10 -143 -26 -134 -16 7 7 83 22 119 24 14 1 20 -3 15 -8z m-505
-21 c0 -5 -24 -10 -54 -10 -30 0 -58 5 -61 10 -4 6 17 10 54 10 34 0 61 -4 61
-10z m449 -17 c-10 -2 -19 -12 -22 -22 -3 -14 -16 -20 -50 -22 -54 -5 -52 2 6
18 39 10 40 11 12 13 -30 2 -30 2 -5 10 14 4 36 8 50 8 14 0 18 -2 9 -5z
m-449 -13 c20 -7 16 -8 -22 -9 -27 -1 -48 4 -48 9 0 12 34 12 70 0z m156 -6
c18 -14 18 -14 -6 -3 -31 14 -36 19 -24 19 6 0 19 -7 30 -16z m-446 -39 c-35
-19 -69 -33 -75 -31 -10 4 111 65 130 65 6 0 -19 -15 -55 -34z m340 15 c20 -6
14 -8 -27 -9 -28 -1 -55 4 -58 9 -7 12 48 12 85 0z m-280 -20 c-42 -23 -33
-26 15 -6 42 18 46 12 7 -8 -27 -14 -110 -20 -97 -7 9 8 87 40 100 40 6 0 -6
-8 -25 -19z m395 10 c3 -6 -1 -7 -9 -4 -18 7 -21 14 -7 14 6 0 13 -4 16 -10z
m232 -6 c-3 -3 -12 -4 -19 -1 -8 3 -5 6 6 6 11 1 17 -2 13 -5z m-518 -8 c-17
-16 -89 -44 -94 -37 -3 5 14 16 37 24 43 15 65 20 57 13z m164 -3 c-7 -2 -21
-2 -30 0 -10 3 -4 5 12 5 17 0 24 -2 18 -5z m-164 -27 c-15 -13 -49 -25 -49
-17 0 5 8 12 18 14 24 6 36 8 31 3z m178 -2 c-3 -3 -12 -4 -19 -1 -8 3 -5 6 6
6 11 1 17 -2 13 -5z m-147 -24 c-8 -5 -19 -10 -25 -10 -5 0 -3 5 5 10 8 5 20
10 25 10 6 0 3 -5 -5 -10z m40 -15 c-30 -17 -40 -18 -40 -6 0 10 22 18 50 19
8 1 4 -5 -10 -13z m579 -21 c11 -11 -8 -10 -44 2 l-40 13 40 -5 c22 -3 42 -8
44 -10z m-44 -14 c7 -12 -12 -12 -40 0 -18 8 -17 9 7 9 15 1 30 -3 33 -9z
m-38 -16 c-3 -3 -12 -4 -19 -1 -8 3 -5 6 6 6 11 1 17 -2 13 -5z m-648 -73
c-43 -39 -59 -49 -59 -33 1 9 94 81 99 76 2 -2 -16 -22 -40 -43z m891 -26 c10
-12 10 -15 -3 -15 -8 0 -32 21 -53 48 l-39 47 41 -32 c23 -18 47 -39 54 -48z
m-843 29 c-21 -20 -42 -33 -45 -29 -4 4 0 10 9 15 9 5 27 18 40 29 40 33 37
23 -4 -15z m793 -19 c26 -31 -7 -14 -41 22 l-34 36 31 -21 c17 -12 37 -28 44
-37z m118 -9 c35 -33 43 -52 13 -37 -10 6 -20 8 -23 6 -2 -3 -24 16 -49 41
-24 25 -36 42 -25 38 15 -6 17 -4 11 7 -9 15 20 -7 73 -55z m-873 19 c-32 -26
-45 -31 -45 -16 0 11 63 52 69 45 3 -3 -8 -16 -24 -29z m675 -17 c0 -5 -3 -8
-7 -8 -10 0 -43 32 -43 42 0 11 49 -24 50 -34z m25 12 c10 -11 14 -20 8 -20
-5 0 -18 9 -28 20 -10 11 -14 20 -8 20 5 0 18 -9 28 -20z m-670 0 c-3 -5 -11
-10 -16 -10 -6 0 -7 5 -4 10 3 6 11 10 16 10 6 0 7 -4 4 -10z m-32 -140 c-20
-44 -36 -65 -62 -81 -20 -12 -37 -21 -38 -20 -2 0 -30 -28 -63 -64 -70 -76
-120 -151 -145 -220 -10 -27 -22 -54 -26 -58 -3 -5 -32 8 -63 29 -55 36 -209
90 -227 78 -10 -6 -12 19 -2 29 3 4 12 2 20 -4 9 -9 13 -8 13 0 0 6 -4 11 -10
11 -5 0 -10 5 -10 11 0 6 9 8 23 4 21 -6 21 -6 3 9 -25 20 -15 20 31 1 42 -18
54 -14 18 5 -14 7 -25 18 -25 24 0 6 5 5 12 -2 9 -9 15 -9 27 1 10 8 12 8 8 1
-11 -19 26 -27 40 -9 6 10 17 14 22 10 13 -8 43 19 33 30 -7 7 2 6 57 -10 15
-5 21 -3 17 3 -3 6 -20 13 -37 17 -17 4 -28 12 -26 18 37 93 62 147 64 140 2
-5 -6 -35 -17 -68 -11 -32 -19 -60 -17 -62 2 -1 23 40 47 92 23 53 44 94 46
92 2 -2 -7 -37 -21 -77 -14 -40 -23 -75 -21 -77 1 -2 18 32 35 74 42 100 56
114 31 32 -25 -82 -24 -86 5 -24 27 57 32 48 10 -15 -23 -66 -12 -57 19 16 37
84 44 76 11 -11 -14 -38 -24 -70 -22 -72 2 -2 19 31 37 72 18 42 37 78 42 81
5 3 2 -11 -6 -31 -23 -54 -19 -57 10 -5 25 45 23 18 -2 -32 -31 -60 -11 -38
27 30 46 81 60 90 29 18 -29 -69 -24 -70 11 -2 38 73 48 67 14 -9 -14 -32 -24
-60 -22 -62 2 -2 19 24 36 58 18 33 35 58 38 56 2 -3 -3 -19 -12 -36 -24 -48
-10 -37 24 19 17 28 33 50 35 50 3 0 -7 -27 -21 -60z m127 30 c0 -5 -5 -10
-11 -10 -5 0 -7 5 -4 10 3 6 8 10 11 10 2 0 4 -4 4 -10z m480 -11 c0 -6 -4 -7
-10 -4 -5 3 -10 11 -10 16 0 6 5 7 10 4 6 -3 10 -11 10 -16z m65 -9 c17 -33
18 -40 7 -40 -9 0 -32 44 -32 60 0 18 9 10 25 -20z m-639 11 c-3 -4 -10 -21
-16 -36 -6 -15 -13 -25 -16 -22 -6 6 23 67 32 67 3 0 3 -4 0 -9z m27 -11 c-5
-20 -21 -36 -28 -28 -5 4 23 48 30 48 2 0 1 -9 -2 -20z m18 -3 c-10 -9 -11 -8
-5 6 3 10 9 15 12 12 3 -3 0 -11 -7 -18z m628 -13 c12 -20 19 -39 16 -42 -7
-8 -12 -1 -30 41 -19 47 -13 47 14 1z m-433 -25 l-16 -23 0 25 c0 30 10 43 23
30 6 -6 3 -18 -7 -32z m-36 -59 c-18 -34 -21 -17 -8 41 13 54 13 54 16 17 2
-20 -2 -47 -8 -58z m-25 18 c-5 -50 -23 -97 -90 -233 -315 -647 -497 -1388
-546 -2232 -7 -117 -15 -213 -18 -213 -23 1 -31 32 -46 190 -47 508 -148 946
-312 1365 -54 137 -224 487 -250 513 -7 7 -13 18 -13 23 0 6 -7 17 -15 25 -17
18 -20 34 -5 34 6 0 10 -8 11 -17 0 -15 2 -15 7 -3 4 10 10 1 18 -25 10 -33
13 -36 14 -15 2 24 3 23 10 -5 l8 -30 2 35 2 35 13 -40 c13 -39 13 -40 23 -15
l9 25 7 -32 c10 -44 26 -52 26 -13 0 18 4 29 10 25 6 -3 10 -17 10 -31 0 -14
4 -22 10 -19 6 4 11 -13 12 -42 l1 -48 7 55 7 55 3 -50 3 -50 6 45 c4 33 8 40
14 27 4 -10 7 -31 8 -45 0 -15 3 -21 6 -14 10 25 23 0 24 -46 l1 -47 9 54 c13
78 22 78 15 1 l-5 -65 13 50 c10 36 14 43 16 25 l2 -25 8 25 c6 20 9 14 11
-30 l2 -55 7 45 c6 40 7 37 10 -35 2 -78 3 -79 10 -32 14 79 23 68 17 -18 l-5
-80 13 63 c18 90 27 89 21 -3 -3 -54 -2 -67 3 -40 l8 40 3 -40 3 -40 7 35 7
35 3 -45 3 -45 7 35 c6 31 8 27 10 -30 3 -54 4 -58 8 -25 l5 40 12 -60 12 -60
2 55 c1 78 -23 181 -59 248 -34 65 -129 169 -174 192 -16 8 -38 29 -49 45 -10
17 -16 22 -13 12 3 -11 2 -16 -5 -12 -5 4 -7 16 -3 27 4 14 2 18 -5 14 -7 -5
-8 -1 -4 10 6 15 7 15 20 -2 8 -10 18 -19 24 -19 5 0 18 -13 29 -30 23 -34 27
-23 5 15 -22 38 -18 49 5 15 21 -32 27 -27 9 7 -8 15 -8 19 0 14 6 -4 20 -25
31 -47 11 -21 23 -39 26 -39 2 0 0 9 -6 19 -13 25 -13 28 4 28 8 0 22 -18 32
-39 26 -59 35 -55 12 5 -22 58 -15 58 14 -1 10 -20 17 -30 15 -22 -3 8 -7 26
-11 40 -5 19 -2 17 14 -10 12 -19 18 -26 14 -15 -17 51 -13 56 11 15 14 -25
24 -37 21 -27 -19 62 -14 68 14 17 17 -30 29 -48 27 -40 -16 58 -13 57 18 -5
36 -72 47 -75 19 -5 -24 61 -10 59 20 -2 15 -29 25 -46 23 -38 -3 8 -7 26 -11
40 l-7 25 15 -25 c10 -16 16 -19 16 -10 0 8 10 -1 20 -20 l20 -35 -5 30 -6 30
21 -35 c17 -28 20 -30 15 -10 -3 14 9 -1 28 -32 42 -72 54 -84 34 -35 -25 59
-85 144 -133 185 -70 62 -179 114 -264 125 -19 3 -80 48 -80 59 0 5 17 -3 38
-19 l37 -27 -30 34 c-16 19 -22 28 -13 21 12 -9 22 -9 35 -3 14 8 25 6 43 -9
74 -58 85 -62 40 -14 -42 46 -43 47 -7 17 51 -43 59 -40 16 5 -18 21 -22 28
-8 15 38 -33 47 -27 13 10 -33 37 -8 21 51 -31 l39 -36 -37 43 c-62 71 -49 67
43 -13 33 -29 28 -17 -15 35 l-20 25 30 -25 c17 -13 46 -38 65 -55 39 -34 25
-10 -29 49 -35 38 -35 39 -6 19 17 -12 41 -33 54 -47 28 -30 40 -33 36 -8 -1
9 -7 16 -13 15 -5 -1 -18 8 -28 20 l-19 22 24 -20 24 -20 -7 20 c-5 14 3 10
28 -14 40 -38 49 -32 14 8 -20 22 -20 23 -2 8 23 -19 39 -23 28 -6 -5 8 -1 8
12 0 53 -30 53 -31 48 -137 -3 -54 -1 -119 4 -144 9 -41 10 -35 12 60 2 75 5
95 10 70 l7 -35 2 43 c2 60 16 52 28 -15 l11 -58 -5 65 c-4 45 -2 62 5 55 6
-5 13 -23 15 -40 3 -16 3 6 1 50 l-3 80 14 -65 14 -65 -4 105 c-4 114 4 106
28 -30 l14 -75 -3 115 -3 115 14 -70 14 -70 -5 110 c-3 60 -2 106 1 103 4 -3
13 -42 21 -85 l14 -78 -5 100 c-5 110 -1 112 20 9 l14 -69 -4 75 -4 75 13 -55
14 -55 2 60 3 60 12 -75 12 -75 3 90 c3 76 4 83 10 45 l7 -45 3 50 3 50 7 -60
7 -60 1 84 c2 95 18 102 25 11 3 -49 3 -47 5 19 1 41 4 72 7 69 3 -3 9 -41 14
-84 l8 -79 2 78 c0 44 5 77 11 77 6 0 11 -10 12 -22 0 -13 4 0 8 27 6 43 7 45
9 15 1 -32 3 -33 13 -15 12 19 13 18 19 -10 6 -26 7 -23 9 20 l3 50 7 -40 7
-40 3 35 3 35 6 -40 c6 -40 7 -39 16 25 l9 65 6 -65 5 -65 13 73 c8 39 16 72
19 72 3 0 2 -28 -2 -62z m-616 -51 c-11 -37 -25 -67 -31 -67 -6 0 -8 10 -4 23
8 33 47 119 51 115 3 -2 -5 -34 -16 -71z m938 31 c-3 -7 -5 -2 -5 12 0 14 2
19 5 13 2 -7 2 -19 0 -25z m82 -34 l9 -59 2 45 3 45 7 -50 c5 -27 8 -68 8 -90
1 -38 0 -39 -11 -15 -6 14 -17 31 -24 38 -12 13 -20 162 -8 150 3 -3 9 -32 14
-64z m-55 24 c4 -17 2 -28 -4 -28 -5 0 -10 14 -10 32 0 36 4 35 14 -4z m23
-45 c-2 -16 -4 -5 -4 22 0 28 2 40 4 28 2 -13 2 -35 0 -50z m-1627 47 c-8 -5
-19 -10 -25 -10 -5 0 -3 5 5 10 8 5 20 10 25 10 6 0 3 -5 -5 -10z m590 -55
c-15 -39 -23 -25 -8 16 6 18 13 29 15 23 2 -6 -1 -24 -7 -39z m-25 5 c-4 -12
-9 -19 -12 -17 -3 3 -2 15 2 27 4 12 9 19 12 17 3 -3 2 -15 -2 -27z m-34 -7
c-12 -20 -14 -14 -5 12 4 9 9 14 11 11 3 -2 0 -13 -6 -23z m72 -49 c-7 -3 -9
-13 -6 -22 5 -13 3 -14 -7 -5 -14 13 -5 33 13 32 9 0 9 -2 0 -5z m-593 -9 c0
-2 -12 -11 -27 -20 -27 -15 -27 -16 -3 -10 24 6 25 6 5 -10 -11 -9 -19 -20
-18 -25 1 -4 -7 -6 -18 -3 -19 5 -19 7 -5 15 9 5 14 13 11 18 -3 5 5 16 17 24
22 16 38 20 38 11z m415 -5 c3 -6 -1 -7 -9 -4 -18 7 -21 14 -7 14 6 0 13 -4
16 -10z m-5 -32 c0 -5 -9 -4 -20 2 -11 6 -20 12 -20 14 0 2 9 2 20 -1 11 -3
20 -9 20 -15z m50 12 c0 -5 -4 -10 -10 -10 -5 0 -10 5 -10 10 0 6 5 10 10 10
6 0 10 -4 10 -10z m83 -5 c-3 -9 -8 -14 -10 -11 -3 3 -2 9 2 15 9 16 15 13 8
-4z m-173 -10 c34 -18 34 -16 19 -49 -17 -36 -35 -39 -87 -11 -52 27 -50 33 3
11 42 -18 46 -13 8 8 -16 8 -22 15 -14 16 11 0 11 3 1 15 -10 12 -2 11 34 -5
60 -25 72 -25 24 1 -21 11 -38 22 -38 24 0 9 21 5 50 -10z m-627 -25 c7 0 6
-4 -3 -10 -12 -8 -10 -10 10 -10 14 0 32 -5 40 -11 11 -7 4 -8 -25 -3 -37 7
-65 24 -65 39 0 4 7 4 16 1 9 -3 21 -6 27 -6z m377 0 c0 -5 -15 -10 -32 -9
-31 1 -32 1 -8 9 35 11 40 11 40 0z m-37 -27 c-7 -2 -21 -2 -30 0 -10 3 -4 5
12 5 17 0 24 -2 18 -5z m206 -17 c21 -12 22 -13 5 -18 -24 -6 -46 1 -39 13 4
5 -2 6 -11 2 -12 -4 -15 -3 -10 5 9 15 25 15 55 -2z m-49 -27 c0 -9 -77 -5
-87 5 -4 4 6 4 22 1 29 -7 29 -7 10 8 -19 15 -17 15 18 5 20 -6 37 -15 37 -19z
m-573 -15 c-3 -3 -12 -4 -19 -1 -8 3 -5 6 6 6 11 1 17 -2 13 -5z m464 -22 c-7
-2 -18 1 -23 6 -8 8 -4 9 13 5 13 -4 18 -8 10 -11z m-421 -32 c-20 -13 -33
-13 -25 0 3 6 14 10 23 10 15 0 15 -2 2 -10z m-145 -67 l-18 -28 29 25 28 25
-16 -25 c-8 -14 -23 -25 -31 -25 -9 0 -19 -4 -23 -8 -4 -4 -12 -7 -18 -7 -5 0
5 16 24 35 41 42 48 44 25 8z m600 16 c4 -6 13 -8 20 -5 7 2 21 -1 30 -8 16
-11 15 -13 -13 -14 -18 0 -34 4 -38 9 -3 5 -9 7 -13 5 -4 -3 -8 1 -8 9 0 17
13 20 22 4z m592 -26 c-3 -10 -5 -4 -5 12 0 17 2 24 5 18 2 -7 2 -21 0 -30z
m-1292 -3 c-10 -11 -20 -18 -23 -15 -3 3 3 14 13 25 10 11 20 18 23 15 3 -3
-3 -14 -13 -25z m195 16 c0 -2 -8 -10 -17 -17 -16 -13 -17 -12 -4 4 13 16 21
21 21 13z m-390 -10 c0 -2 -8 -10 -17 -17 -16 -13 -17 -12 -4 4 13 16 21 21
21 13z m369 -122 c-6 -16 -13 -24 -16 -17 -5 13 16 58 23 50 3 -2 -1 -17 -7
-33z m501 2 c0 -6 -7 -3 -14 6 -7 10 -17 14 -21 10 -5 -4 -5 -1 -1 6 6 10 11
10 22 1 8 -6 14 -17 14 -23z m-527 -6 c-5 -19 -23 -39 -23 -25 0 9 20 45 24
45 2 0 2 -9 -1 -20z m114 -82 c-3 -8 -6 -5 -6 6 -1 11 2 17 5 13 3 -3 4 -12 1
-19z m91 -93 c-3 -3 -9 2 -12 12 -6 14 -5 15 5 6 7 -7 10 -15 7 -18z m-77
-117 c-10 -11 -11 -9 -5 6 6 15 4 17 -6 11 -9 -6 -11 -4 -5 4 5 9 10 10 18 2
8 -8 7 -14 -2 -23z m-13 -34 c-4 -3 -12 5 -18 18 -12 22 -12 22 6 6 10 -10 15
-20 12 -24z m659 -6 c-3 -8 -6 -5 -6 6 -1 11 2 17 5 13 3 -3 4 -12 1 -19z"/>
<path d="M3650 3625 c13 -14 26 -25 28 -25 3 0 -5 11 -18 25 -13 14 -26 25
-28 25 -3 0 5 -11 18 -25z"/>
<path d="M2062 3031 c-8 -5 -2 -15 20 -31 27 -19 30 -20 15 -3 -9 11 -14 22
-11 25 9 10 -11 17 -24 9z"/>
<path d="M2420 3036 c0 -2 8 -10 18 -17 15 -13 16 -12 3 4 -13 16 -21 21 -21
13z"/>
<path d="M2368 3934 c-16 -8 -28 -17 -28 -19 0 -6 52 16 65 27 15 13 -7 9 -37
-8z"/>
<path d="M2654 3658 l-19 -23 23 19 c21 18 27 26 19 26 -2 0 -12 -10 -23 -22z"/>
<path d="M1010 3290 c-18 -12 -2 -12 25 0 13 6 15 9 5 9 -8 0 -22 -4 -30 -9z"/>
<path d="M3351 3093 c-10 -26 -10 -27 4 -9 8 11 15 23 15 28 0 15 -7 8 -19
-19z"/>
<path d="M1279 2973 c-13 -16 -12 -17 4 -4 9 7 17 15 17 17 0 8 -8 3 -21 -13z"/>
<path d="M1181 2394 c0 -11 3 -14 6 -6 3 7 2 16 -1 19 -3 4 -6 -2 -5 -13z"/>
<path d="M1460 2311 c0 -6 4 -13 10 -16 6 -3 7 1 4 9 -7 18 -14 21 -14 7z"/>
</g>
</svg>
